<?xml version="1.0" encoding="UTF-8"?>
<svg xmlns="http://www.w3.org/2000/svg" xmlns:xlink="http://www.w3.org/1999/xlink" width="375pt" height="374.999991pt" viewBox="0 0 375 374.999991" version="1.2">
<g id="surface1">
<rect x="0" y="0" width="375" height="374.999991" style="fill:rgb(100%,100%,100%);fill-opacity:1;stroke:none;"/>
<path style=" stroke:none;fill-rule:nonzero;fill:rgb(11.369324%,60.778809%,94.119263%);fill-opacity:1;" d="M 120.714844 333.835938 C 256.507812 333.835938 330.808594 221.226562 330.808594 123.738281 C 330.808594 120.570312 330.808594 117.402344 330.667969 114.234375 C 345.066406 103.867188 357.59375 90.761719 367.53125 75.929688 C 354.28125 81.835938 340.027344 85.722656 325.050781 87.59375 C 340.3125 78.523438 351.976562 63.976562 357.59375 46.699219 C 343.339844 55.195312 327.5 61.242188 310.648438 64.554688 C 297.113281 50.152344 277.960938 41.226562 256.792969 41.226562 C 216.042969 41.226562 182.921875 74.347656 182.921875 115.097656 C 182.921875 120.859375 183.640625 126.472656 184.792969 131.945312 C 123.449219 128.921875 69.019531 99.402344 32.585938 54.761719 C 26.25 65.707031 22.648438 78.378906 22.648438 91.914062 C 22.648438 117.546875 35.753906 140.152344 55.480469 153.402344 C 43.386719 152.96875 32.011719 149.65625 22.074219 144.1875 C 22.074219 144.472656 22.074219 144.761719 22.074219 145.195312 C 22.074219 180.90625 47.5625 210.859375 81.257812 217.625 C 75.066406 219.355469 68.585938 220.21875 61.816406 220.21875 C 57.066406 220.21875 52.457031 219.785156 47.996094 218.921875 C 57.355469 248.296875 84.714844 269.609375 116.96875 270.1875 C 91.625 290.058594 59.800781 301.867188 25.242188 301.867188 C 19.339844 301.867188 13.433594 301.578125 7.675781 300.859375 C 40.21875 321.59375 79.097656 333.835938 120.714844 333.835938 "/>
</g>
</svg>
